<svg width="226" height="226" viewBox="0 0 226 226" fill="none" xmlns="http://www.w3.org/2000/svg">
<path d="M201.333 78.7263L201.333 78.7262C179.176 53.2123 142.508 49.5465 119.432 70.5383L67.7316 117.569C44.6556 138.561 43.9105 176.261 66.0673 201.775L66.0674 201.775C88.2242 227.289 124.893 230.954 147.969 209.963L199.669 162.932C222.745 141.94 223.49 104.24 201.333 78.7263Z" fill="#FF001D"/>
<path d="M65.7874 179.457C99.0317 179.457 127.834 152.559 127.834 118.236C127.834 83.9126 101.81 56.0879 68.5657 56.0879C35.3211 56.0879 8.37109 83.9126 8.37109 118.236C8.37109 152.559 32.5429 179.457 65.7874 179.457Z" fill="#6DDCE5"/>
<path fill-rule="evenodd" clip-rule="evenodd" d="M127.834 118.236C127.834 152.559 99.0316 179.456 65.7873 179.456C61.2791 179.456 56.9378 178.962 52.8009 178.021C46.0923 156.393 51.1399 132.663 67.7313 117.57L112.756 76.6118C122.172 87.6297 127.834 102.226 127.834 118.236Z" fill="#6B289B"/>
<path fill-rule="evenodd" clip-rule="evenodd" d="M114.573 52.3052C114.573 52.3052 60.5307 57.9991 61.4781 1.05966L114.573 52.3052ZM114.573 52.3052C114.573 52.3052 117.417 0.110626 61.4781 1.05966L114.573 52.3052Z" fill="#7FD44A"/>
</svg>
