<svg width="1460" height="530" xmlns="http://www.w3.org/2000/svg"><path fill="#458500" fill-rule="evenodd" d="M1298.754 494.58c-25.214-.091-50.575-7.43-72.555-22.28-9.6-6.5-15.399-13.7-24.299 2.9-9.5 17.7-29.1 21.6-48.4 17.8-17.9-3.5-30-15.1-34.1-33-2.4-10.7-3.1-22.1-3.1-33.1-.2-104.6-.2-209.2-.1-313.8 0-8.8 0-17.6 1.1-26.3 3.7-28.5 22.2-44.2 50.2-43.2 25.8.9 43.9 18.3 44.9 46.2 1.3 30.9.4 61.9.4 97.6 38.1-29.2 76.8-34.9 117.4-26.7 58.4 11.8 95.9 54.2 105.5 123.9 8.5 61.7 2.5 121.9-43.2 170.2-24.917 26.421-59.194 39.905-93.746 39.78zm-21.508-86.062c26.082.108 45.79-14.969 54.354-43.319 9.6-31.5 8.8-63.298-4.9-93.398-17.5-38.5-62.8-43.801-89.9-11.201-16.2 19.5-19.7 42.9-20 73.3 1 5.9 1.8 18 5 29.3 8 28.9 27.6 44.7 54.2 45.3.417.01.832.016 1.246.018zM689.238 494.678c-31.27-.047-61.792-6.613-90.039-24.078-57.7-35.6-83.198-106.9-67.398-187.6 11.5-58.9 43.8-101.8 102.1-117.8 62.1-17.2 122.198-12 170.298 38.2 26.7 27.8 38.601 61.9 37.301 100.2-1 31-15 46.4-45.8 51.5-27.7 4.6-55.7 1.6-79.8 2.4-25.3 0-46.9.5-68.4-.2-13.5-.4-16.7 3.8-12.5 16.9 12.2 37.7 51.9 54.9 88.9 37.4 16.9-8 29.5-21.5 43.1-33.7 17.9-16 40.7-18.5 56.5-6.5 15 11.4 18.6 32.7 7.4 54.2-21.9 42.1-60.5 60.3-104.7 66.4-12.376 1.716-24.725 2.696-36.962 2.678zm-45.943-205.033c4.535-.009 9.973-1.27 14.305-1.045 8.7.5 17.5.1 26.2.1 14.3 0 28.6-.6 42.9.2 12.8.8 15.3-4.1 11.4-15.2-7.1-20.3-20.3-34.2-42-37.6-22.6-3.6-40.8 4.5-52.9 24-4.9 7.9-12.5 17.5-7.9 26 1.488 2.8 4.468 3.551 7.995 3.545z"/><path fill="#458500" d="M956.5 182.2c34.6-36.8 85.1-26.9 114.4-9.5 23.2 13.8 31.5 36.6 22.3 59-9.3 22.5-30.7 31.1-57.5 23.2-45.8-13.6-60.1-4.1-67.9 43.7-6.5 40.5-3.2 81.1-4.1 121.7-.2 9.6.4 19.3-1 28.6-4.5 29.1-24.4 45.8-52.4 44.9-26.2-.8-44.7-18.5-46.9-47.7-1.7-22.2-1.1-44.6-1.1-66.9 0-54.2-.1-108.4.5-162.7.2-24.2 5.7-46.5 31.4-56.5 22-8.3 41.7-.9 62.3 22.2zM506.2 267.7v160.4c0 16.1-1.4 31.9-11.6 45.4-14.2 18.8-33.6 23.6-55.4 19.2-22.5-4.5-38.3-23.4-39.8-50.7-1.8-32.6-.9-65.4-1-98.1-.1-39.2 0-39.2-38.2-39.2-32.7 0-65.5.6-98.2-.3-13.8-.4-17.6 4-17.3 17.5.8 37.5.4 75 .2 112.5-.1 23.1-8 42.5-29.2 53.8-30.7 16.3-67.4 0-75.5-33.7-2.6-10.7-3-22.1-3-33.2-.2-102.2-.1-204.3-.1-306.5 0-7.2.2-14.4 1.2-21.5 4.3-34 23.1-50.8 55.2-49.9 30.1.9 50.1 21.6 51.4 54.6.9 24.7.2 49.5.2 74.2 0 38.9 0 38.9 38.1 38.9 32.7 0 65.5-.6 98.2.3 13.4.4 17.8-3.4 17.4-17.1-1-31.1-1.1-62.3 0-93.4 1.2-35.7 20.6-56.6 51-57.5 35-1 55.6 19.8 56.5 59 .8 38.3.2 76.6.2 114.9-.3 16.9-.3 33.6-.3 50.4zM10.1 325.6c0-37.5-.2-75 .1-112.5.3-34.6 18.6-55 48.9-55.4 31.2-.4 51.3 20.7 51.5 55.9.4 74.2.5 148.3 0 222.5-.2 37.3-19.8 58.2-52.1 57.8-30.7-.4-48.2-21.4-48.4-58.3-.1-36.6 0-73.3 0-110z"/><path fill="#458501" d="M59.7 47.5c29.6-.4 50.3 19 51 47.6.7 30.2-19.8 51.3-49.9 51.5-30.1.3-50.2-18.6-50.7-47.6-.6-30.6 19.3-51.1 49.6-51.5z"/></svg>