<?xml version="1.0" encoding="UTF-8"?>
<!-- Generated by Pixelmator Pro 3.5.3 -->
<svg width="1200" height="1200" viewBox="0 0 1200 1200" xmlns="http://www.w3.org/2000/svg">
    <g id="svgg">
        <path id="path0" fill="#fbd31c" fill-rule="evenodd" stroke="none" d="M 189.695999 0.900024 C 189.630005 1.929077 187.238998 2.406006 182.100006 2.417969 C 174.212997 2.438965 170.738998 3.635986 172.115997 5.86499 C 172.809006 6.984009 162.630005 8.057983 158.100006 7.340942 C 157.604996 7.262939 157.263 7.60498 157.341003 8.100098 C 157.869003 11.432983 156.830994 12 150.201004 12 C 144.710999 12 143.199005 12.395996 143.199005 13.838989 C 143.199005 15.10498 143.585999 15.293945 144.440994 14.438965 C 146.186996 12.692993 147.201004 12.900024 147.201004 15 C 147.201004 16.391968 145.548004 16.821045 139.899002 16.895996 C 135.884995 16.947021 133.268997 17.259033 134.087997 17.592041 C 136.569 18.593994 132.735001 21.50708 128.514008 21.828003 C 126.471008 21.984009 124.799995 22.752075 124.799995 23.538086 C 124.799995 25.166992 117.870003 27.909058 116.262009 26.916016 C 115.676994 26.553101 115.200005 26.784058 115.200005 27.429077 C 115.200005 28.073975 115.875 28.871948 116.700005 29.204956 C 117.524994 29.538086 116.444992 29.853027 114.299995 29.903931 C 112.154999 29.958008 110.399994 30.597046 110.399994 31.328979 C 110.399994 32.067017 109.526993 32.322021 108.429001 31.901978 C 106.772995 31.262939 106.704002 31.437012 108 33 C 109.287003 34.551025 109.235992 34.737061 107.690994 34.145996 C 106.673996 33.756104 105.500999 33.98999 105.084 34.665039 C 104.664001 35.343018 103.529999 35.592041 102.561005 35.219971 C 101.375999 34.764038 100.799995 35.324951 100.799995 36.932983 C 100.799995 38.309937 99.786003 39.585083 98.399994 39.947998 C 97.080002 40.292969 96 41.436035 96 42.489014 C 96 43.710083 94.952995 44.400024 93.098999 44.400024 C 88.569 44.400024 86.147995 45.651001 87.507004 47.289063 C 88.334999 48.288086 87.938995 48.753052 86.147995 48.887939 C 83.543999 49.08606 81.342003 51.411011 82.295998 52.956055 C 82.593002 53.436035 81.612 54.003052 80.117996 54.215942 C 78.393005 54.459106 77.459999 55.368042 77.568001 56.699951 C 77.669998 58.016968 76.889999 58.800049 75.468002 58.800049 C 74.000999 58.800049 97.18325 29.522461 70.800003 63.600098 C 69.821121 64.864502 67.598999 68.400024 66 68.400024 C 64.401001 68.400024 63.600002 69.200928 63.600002 70.800049 C 63.600002 72.399048 62.799004 73.199951 61.199997 73.199951 C 59.646 73.199951 58.800003 74.000977 58.800003 75.468018 C 58.800003 76.890015 58.017002 77.670044 56.699997 77.567993 C 55.367996 77.460083 54.459 78.393066 54.216003 80.118042 C 54.002998 81.612061 53.436001 82.593018 52.956001 82.296021 C 51.410995 81.342041 49.085999 83.543945 48.888 86.148071 C 48.752998 87.938965 48.288002 88.335083 47.288998 87.50708 C 45.651001 86.148071 44.400002 88.569092 44.400002 93.098999 C 44.400002 94.953003 43.709999 96 42.488998 96 C 41.436001 96 40.292999 97.079956 39.947998 98.400024 C 39.584999 99.786011 38.310001 100.800049 36.932999 100.800049 C 35.324997 100.800049 34.764 101.375977 35.220001 102.561035 C 35.592003 103.530029 35.343002 104.664063 34.665001 105.084106 C 33.989998 105.500977 33.756001 106.67395 34.146 107.69104 C 34.737 109.235962 34.551003 109.287109 33 108 C 31.437 106.703979 31.262999 106.773071 31.902 108.429077 C 32.321999 109.526978 32.067001 110.400024 31.328999 110.400024 C 30.597 110.400024 29.958 112.155029 29.904001 114.300049 C 29.853001 116.445068 29.537998 117.525024 29.204998 116.699951 C 28.871998 115.875 28.073999 115.199951 27.428999 115.199951 C 26.784 115.199951 26.552999 115.677002 26.916 116.261963 C 27.909 117.869995 25.167 124.800049 23.538 124.800049 C 22.752001 124.800049 21.984001 126.471069 21.827999 128.514038 C 21.507 132.734985 18.594 136.569092 17.591999 134.088013 C 17.258999 133.269043 16.947001 135.88501 16.896 139.899048 C 16.820999 145.547974 16.392 147.20105 15 147.20105 C 12.900001 147.20105 12.693 146.187012 14.439001 144.44104 C 15.294001 143.58606 15.105 143.198975 13.839 143.198975 C 12.396 143.198975 12 144.71106 12 150.20105 C 12 156.831055 11.433001 157.869019 8.1 157.340942 C 7.605 157.262939 7.263 157.60498 7.341 158.100098 C 8.058001 162.630005 6.984 172.80896 5.865 172.116089 C 3.645 170.744995 2.439 174.203979 2.418 182.000977 C 2.406 186.782959 1.869 189.615051 0.9 190.005005 C -0.3 190.488037 -0.3 190.629028 0.9 190.703979 C 2.667 190.817993 2.958 194.399963 1.2 194.399963 C 0.402 194.399963 0 331.200012 0 602.399963 C 0 873.600037 0.402 1010.399963 1.2 1010.399963 C 1.893 1010.399963 2.4 1014.200928 2.4 1019.399963 C 2.4 1027.598999 2.613 1028.399902 4.8 1028.399902 C 6.978 1028.399902 8.337 1035.605957 7.341 1041.899902 C 7.263 1042.39502 7.605 1042.737061 8.1 1042.659058 C 11.439 1042.131104 12.008999 1043.204956 12.162 1050.300049 C 12.252001 1054.425049 12.560999 1056.584961 12.846001 1055.100098 C 14.031 1048.956055 16.797001 1052.238037 16.896 1059.899902 C 16.947001 1064.024902 17.258999 1066.730957 17.591999 1065.911987 C 18.594 1063.430908 21.507 1067.265015 21.827999 1071.485962 C 21.984001 1073.528931 22.752001 1075.199951 23.538 1075.199951 C 25.167 1075.199951 27.909 1082.130005 26.916 1083.738037 C 26.552999 1084.322998 26.784 1084.800049 27.428999 1084.800049 C 28.073999 1084.800049 28.871998 1084.125 29.204998 1083.300049 C 29.537998 1082.475098 29.853001 1083.521973 29.904001 1085.628052 C 29.958 1087.734009 30.549 1089.797974 31.220999 1090.211914 C 31.889999 1090.625977 32.057999 1091.604004 31.59 1092.384033 C 31.035 1093.307983 31.397999 1093.265991 32.642998 1092.258057 C 34.250999 1090.956055 34.521 1091.049072 34.374001 1092.858032 C 34.244999 1094.427002 34.923 1094.901001 36.900002 1094.625 C 38.849998 1094.352051 39.594002 1094.853027 39.582001 1096.425049 C 39.567001 1098.266968 39.387001 1098.323975 38.400002 1096.800049 C 37.554001 1095.491943 37.233002 1095.428955 37.218002 1096.572021 C 37.209 1097.436035 36.66 1097.807983 36 1097.399902 C 35.34 1096.991943 34.800003 1097.229004 34.800003 1097.927979 C 34.800003 1098.627075 35.838001 1099.199951 37.104 1099.199951 C 38.691002 1099.199951 39.656998 1100.324951 40.202999 1102.80896 C 40.638 1104.795044 42.045002 1106.981934 43.332001 1107.668945 C 44.615997 1108.359009 45.417 1109.324951 45.113998 1109.817017 C 44.807999 1110.312012 45.113998 1111.5 45.792 1112.457031 C 46.806 1113.887939 46.907997 1113.831055 46.364998 1112.139038 C 46.001999 1111.005005 46.236 1109.747925 46.881001 1109.348999 C 47.528999 1108.949951 47.982002 1109.067017 47.889 1109.609985 C 47.396999 1112.436035 48.284996 1113.600098 50.928001 1113.600098 C 53.445 1113.600098 53.906998 1114.22998 54.228001 1118.100098 C 54.642002 1123.113037 57.927002 1124.516968 58.574997 1119.957031 C 58.781998 1118.502075 59.897999 1117.014038 61.053001 1116.64502 C 62.208 1116.278931 64.641006 1113.959961 66.459 1111.490967 C 69.242996 1107.702026 897.600037 2.480957 897.600037 1.302002 C 897.600037 0.369019 798.10498 0 546 0 C 312.399017 0 194.400009 0.401978 194.400009 1.199951 C 194.400009 2.928101 191.112 2.682007 190.395004 0.900024 C 189.912003 -0.300049 189.770996 -0.300049 189.695999 0.900024"/>
        <path id="path2" fill="#fbfbfb" fill-rule="evenodd" stroke="none" d="M 190.799988 1.199951 C 190.799988 1.859985 191.610001 2.399902 192.599991 2.399902 C 193.589996 2.399902 194.400009 1.859985 194.400009 1.199951 C 194.400009 0.540039 193.589996 0 192.599991 0 C 191.610001 0 190.799988 0.540039 190.799988 1.199951 M 897.600037 1.302002 C 897.600037 2.480957 69.242996 1107.702026 66.459 1111.490967 C 64.641006 1113.959961 62.235001 1116.272949 61.110001 1116.630005 C 57.216003 1117.865967 57.372002 1126.800049 61.287003 1126.800049 C 62.799004 1126.800049 63.600002 1127.631104 63.600002 1129.199951 C 63.600002 1130.799072 64.401001 1131.600098 66 1131.600098 C 67.598999 1131.600098 68.399994 1132.401001 68.399994 1134 C 68.399994 1135.598999 69.200996 1136.399902 70.800003 1136.399902 C 72.399002 1136.399902 73.199997 1137.200928 73.199997 1138.800049 C 73.199997 1140.119995 73.973999 1141.199951 74.918999 1141.199951 C 75.863998 1141.199951 76.979996 1142.280029 77.399994 1143.600098 C 77.82 1144.920044 78.936005 1146 79.881004 1146 C 80.825996 1146 81.600006 1146.860962 81.600006 1147.911011 C 81.600006 1148.963989 82.662003 1150.101074 83.960999 1150.442993 C 85.257004 1150.781982 86.645996 1152.081055 87.042 1153.328979 C 87.540001 1154.897949 88.884003 1155.600098 91.391998 1155.600098 C 94.014 1155.600098 95.198997 1156.265991 95.652 1158 C 95.997002 1159.320068 97.233002 1160.399902 98.399994 1160.399902 C 99.567001 1160.399902 100.803009 1161.47998 101.147995 1162.800049 C 101.493004 1164.119995 102.636002 1165.199951 103.688995 1165.199951 C 104.738998 1165.199951 106.680008 1166.280029 108 1167.600098 C 109.319992 1168.920044 111.479996 1170 112.799995 1170 C 114.131996 1170 115.200005 1170.801025 115.200005 1171.800049 C 115.200005 1173.06604 116.477997 1173.600098 119.511002 1173.600098 C 122.813995 1173.600098 123.972 1174.161011 124.452003 1176 C 124.917 1177.781982 126.089996 1178.399902 129 1178.399902 C 131.910004 1178.399902 133.083008 1179.018066 133.548004 1180.800049 C 134.024994 1182.61792 135.186005 1183.199951 138.348007 1183.199951 C 141.509995 1183.199951 142.67099 1183.781982 143.147995 1185.600098 C 143.682007 1187.640015 144.786011 1188 150.488998 1188 C 156.399002 1188 157.200012 1188.285034 157.200012 1190.399902 C 157.200012 1192.532959 158.001007 1192.800049 164.399994 1192.800049 C 170.798996 1192.800049 171.600006 1193.067017 171.600006 1195.199951 C 171.600006 1197.386963 172.401001 1197.600098 180.600006 1197.600098 C 185.798996 1197.600098 189.600006 1198.106934 189.600006 1198.800049 C 189.600006 1199.598022 327.200989 1200 600 1200 C 872.799072 1200 1010.399963 1199.598022 1010.399963 1198.800049 C 1010.399963 1198.106934 1014.200928 1197.600098 1019.399963 1197.600098 C 1027.598999 1197.600098 1028.399902 1197.386963 1028.399902 1195.199951 C 1028.399902 1193.067017 1029.200928 1192.800049 1035.600098 1192.800049 C 1041.999023 1192.800049 1042.800049 1192.532959 1042.800049 1190.399902 C 1042.800049 1188.285034 1043.601074 1188 1049.510986 1188 C 1055.213989 1188 1056.317993 1187.640015 1056.852051 1185.600098 C 1057.328979 1183.781982 1058.48999 1183.199951 1061.651978 1183.199951 C 1064.813965 1183.199951 1065.975098 1182.61792 1066.452026 1180.800049 C 1066.916992 1179.018066 1068.089966 1178.399902 1071 1178.399902 C 1073.910034 1178.399902 1075.083008 1177.781982 1075.547974 1176 C 1076.027954 1174.161011 1077.186035 1173.600098 1080.489014 1173.600098 C 1083.521973 1173.600098 1084.800049 1173.06604 1084.800049 1171.800049 C 1084.800049 1170.801025 1085.86792 1170 1087.199951 1170 C 1088.52002 1170 1090.679932 1168.920044 1092 1167.600098 C 1093.320068 1166.280029 1095.260986 1165.199951 1096.311035 1165.199951 C 1097.364014 1165.199951 1098.50708 1164.119995 1098.852051 1162.800049 C 1099.197021 1161.47998 1100.432983 1160.399902 1101.600098 1160.399902 C 1102.766968 1160.399902 1104.003052 1159.320068 1104.348022 1158 C 1104.801025 1156.265991 1105.985962 1155.600098 1108.608032 1155.600098 C 1111.115967 1155.600098 1112.459961 1154.897949 1112.958008 1153.328979 C 1113.354004 1152.081055 1114.74292 1150.781982 1116.039063 1150.442993 C 1117.338013 1150.101074 1118.399902 1148.963989 1118.399902 1147.911011 C 1118.399902 1146.860962 1119.174072 1146 1120.118896 1146 C 1121.063965 1146 1122.179932 1144.920044 1122.600098 1143.600098 C 1123.02002 1142.280029 1124.135986 1141.199951 1125.081055 1141.199951 C 1126.026001 1141.199951 1126.800049 1140.119995 1126.800049 1138.800049 C 1126.800049 1137.200928 1127.601074 1136.399902 1129.199951 1136.399902 C 1130.799072 1136.399902 1131.600098 1135.598999 1131.600098 1134 C 1131.600098 1132.401001 1132.401001 1131.600098 1134 1131.600098 C 1135.598999 1131.600098 1136.399902 1130.799072 1136.399902 1129.199951 C 1136.399902 1127.601074 1137.200928 1126.800049 1138.800049 1126.800049 C 1140.119995 1126.800049 1141.199951 1126.026001 1141.199951 1125.081055 C 1141.199951 1124.135986 1142.280029 1123.02002 1143.600098 1122.600098 C 1144.920044 1122.179932 1146 1121.127075 1146 1120.26001 C 1146 1119.390015 1147.079956 1118.396973 1148.399902 1118.052002 C 1149.719971 1117.707031 1150.800049 1116.600098 1150.800049 1115.592041 C 1150.800049 1114.586914 1151.880005 1113.420044 1153.199951 1113 C 1154.903931 1112.459961 1155.600098 1111.184937 1155.600098 1108.608032 C 1155.600098 1105.985962 1156.265991 1104.801025 1158 1104.348022 C 1159.320068 1104.003052 1160.399902 1102.766968 1160.399902 1101.600098 C 1160.399902 1100.432983 1161.47998 1099.197021 1162.800049 1098.852051 C 1164.119995 1098.50708 1165.199951 1097.364014 1165.199951 1096.311035 C 1165.199951 1095.260986 1166.280029 1093.320068 1167.600098 1092 C 1168.920044 1090.679932 1170 1088.52002 1170 1087.199951 C 1170 1085.86792 1170.801025 1084.800049 1171.800049 1084.800049 C 1173.06604 1084.800049 1173.600098 1083.521973 1173.600098 1080.489014 C 1173.600098 1077.186035 1174.161011 1076.027954 1176 1075.547974 C 1177.781982 1075.083008 1178.399902 1073.910034 1178.399902 1071 C 1178.399902 1068.089966 1179.018066 1066.916992 1180.800049 1066.452026 C 1182.61792 1065.975098 1183.199951 1064.813965 1183.199951 1061.651978 C 1183.199951 1058.48999 1183.781982 1057.328979 1185.600098 1056.852051 C 1187.640015 1056.317993 1188 1055.213989 1188 1049.510986 C 1188 1043.601074 1188.285034 1042.800049 1190.399902 1042.800049 C 1192.532959 1042.800049 1192.800049 1041.999023 1192.800049 1035.600098 C 1192.800049 1029.200928 1193.067017 1028.399902 1195.199951 1028.399902 C 1197.386963 1028.399902 1197.600098 1027.598999 1197.600098 1019.399963 C 1197.600098 1014.200928 1198.106934 1010.399963 1198.800049 1010.399963 C 1199.598022 1010.399963 1200 872.799072 1200 600 C 1200 327.20105 1199.598022 189.600037 1198.800049 189.600037 C 1198.106934 189.600037 1197.600098 185.79895 1197.600098 180.600037 C 1197.600098 172.401001 1197.386963 171.600098 1195.199951 171.600098 C 1193.067017 171.600098 1192.800049 170.79895 1192.800049 164.399902 C 1192.800049 158.000977 1192.532959 157.199951 1190.399902 157.199951 C 1188.285034 157.199951 1188 156.398926 1188 150.489014 C 1188 144.786011 1187.640015 143.682007 1185.600098 143.147949 C 1183.781982 142.671021 1183.199951 141.51001 1183.199951 138.348022 C 1183.199951 135.186035 1182.61792 134.024902 1180.800049 133.547974 C 1179.018066 133.083008 1178.399902 131.910034 1178.399902 129 C 1178.399902 126.089966 1177.781982 124.916992 1176 124.452026 C 1174.161011 123.972046 1173.600098 122.813965 1173.600098 119.510986 C 1173.600098 116.478027 1173.06604 115.199951 1171.800049 115.199951 C 1170.801025 115.199951 1170 114.13208 1170 112.800049 C 1170 111.47998 1168.920044 109.320068 1167.600098 108 C 1166.280029 106.679932 1165.199951 104.739014 1165.199951 103.688965 C 1165.199951 102.635986 1164.119995 101.49292 1162.800049 101.147949 C 1161.47998 100.802979 1160.399902 99.567017 1160.399902 98.399902 C 1160.399902 97.233032 1159.320068 95.996948 1158 95.651978 C 1156.265991 95.198975 1155.600098 94.014038 1155.600098 91.391968 C 1155.600098 88.884033 1154.897949 87.540039 1153.328979 87.041992 C 1152.081055 86.645996 1150.781982 85.25708 1150.442993 83.960938 C 1150.101074 82.662109 1148.963989 81.600098 1147.911011 81.600098 C 1146.860962 81.600098 1146 80.825928 1146 79.881104 C 1146 78.936035 1144.920044 77.820068 1143.600098 77.399902 C 1142.280029 76.97998 1141.199951 75.864014 1141.199951 74.918945 C 1141.199951 73.973999 1140.119995 73.199951 1138.800049 73.199951 C 1137.200928 73.199951 1136.399902 72.398926 1136.399902 70.800049 C 1136.399902 69.200928 1135.598999 68.399902 1134 68.399902 C 1132.401001 68.399902 1131.600098 67.598999 1131.600098 66 C 1131.600098 64.401001 1130.799072 63.600098 1129.199951 63.600098 C 1127.601074 63.600098 1126.800049 62.799072 1126.800049 61.199951 C 1126.800049 59.880005 1126.026001 58.800049 1125.081055 58.800049 C 1124.135986 58.800049 1123.02002 57.719971 1122.600098 56.399902 C 1122.179932 55.079956 1121.127075 54 1120.26001 54 C 1119.390015 54 1118.396973 52.920044 1118.052002 51.600098 C 1117.707031 50.280029 1116.600098 49.199951 1115.592041 49.199951 C 1114.586914 49.199951 1113.420044 48.119995 1113 46.800049 C 1112.459961 45.096069 1111.184937 44.399902 1108.608032 44.399902 C 1105.985962 44.399902 1104.801025 43.734009 1104.348022 42 C 1104.003052 40.679932 1102.766968 39.600098 1101.600098 39.600098 C 1100.432983 39.600098 1099.197021 38.52002 1098.852051 37.199951 C 1098.50708 35.880005 1097.364014 34.800049 1096.311035 34.800049 C 1095.260986 34.800049 1093.320068 33.719971 1092 32.399902 C 1090.679932 31.079956 1088.52002 30 1087.199951 30 C 1085.86792 30 1084.800049 29.198975 1084.800049 28.199951 C 1084.800049 26.93396 1083.521973 26.399902 1080.489014 26.399902 C 1077.186035 26.399902 1076.027954 25.838989 1075.547974 24 C 1075.083008 22.218018 1073.910034 21.600098 1071 21.600098 C 1068.089966 21.600098 1066.916992 20.981934 1066.452026 19.199951 C 1065.975098 17.38208 1064.813965 16.800049 1061.651978 16.800049 C 1058.48999 16.800049 1057.328979 16.218018 1056.852051 14.399902 C 1056.317993 12.359985 1055.213989 12 1049.510986 12 C 1043.601074 12 1042.800049 11.714966 1042.800049 9.600098 C 1042.800049 7.467041 1041.999023 7.199951 1035.600098 7.199951 C 1029.200928 7.199951 1028.399902 6.932983 1028.399902 4.800049 C 1028.399902 2.613037 1027.598999 2.399902 1019.399963 2.399902 C 1014.200928 2.399902 1010.399963 1.893066 1010.399963 1.199951 C 1010.399963 0.416992 990.801025 0 954 0 C 914.231934 0 897.600037 0.384033 897.600037 1.302002 M 144 15 C 142.757996 16.496948 142.901993 16.800049 144.852005 16.800049 C 146.145004 16.800049 147.201004 15.98999 147.201004 15 C 147.201004 14.01001 146.817001 13.199951 146.346008 13.199951 C 145.877991 13.199951 144.821991 14.01001 144 15 M 14.64 144.23999 C 12.702001 146.177979 12.828 147.20105 15 147.20105 C 15.99 147.20105 16.799999 146.210938 16.799999 144.999023 C 16.799999 142.410034 16.556999 142.322998 14.64 144.23999 M 0 192.600037 C 0 193.589966 0.54 194.399963 1.2 194.399963 C 1.86 194.399963 2.4 193.589966 2.4 192.600037 C 2.4 191.609985 1.86 190.800049 1.2 190.800049 C 0.54 190.800049 0 191.609985 0 192.600037 M 13.200001 1054.598999 C 13.200001 1055.811035 14.01 1056.801025 15 1056.801025 C 15.99 1056.801025 16.799999 1055.811035 16.799999 1054.598999 C 16.799999 1053.390015 15.99 1052.399902 15 1052.399902 C 14.01 1052.399902 13.200001 1053.390015 13.200001 1054.598999 M 35.451 1095.515991 C 35.072998 1096.131104 35.310001 1096.973999 35.979 1097.387939 C 36.651001 1097.802002 37.209 1097.436035 37.218002 1096.572021 C 37.233002 1095.428955 37.554001 1095.491943 38.400002 1096.800049 C 39.392998 1098.338989 39.567001 1098.293945 39.582001 1096.5 C 39.599998 1094.297974 36.639 1093.593018 35.451 1095.515991 M 44.799 1110.746948 C 44.799 1111.598999 45.203999 1112.046021 45.698997 1111.73999 C 46.191002 1111.43396 46.857002 1111.863037 47.175003 1112.694092 C 47.493 1113.521973 47.702999 1113.074951 47.637001 1111.700928 C 47.511002 1109.040039 44.799 1108.128052 44.799 1110.746948 M 49.707001 1115.601074 C 50.129997 1118.484009 54 1118.747925 54 1115.89502 C 54 1114.43396 53.166 1113.600098 51.705002 1113.600098 C 50.247002 1113.600098 49.518002 1114.328979 49.707001 1115.601074"/>
        <path id="path1" fill="#151514" fill-rule="evenodd" stroke="none" d="M 529.320007 245.762939 C 527.988037 248.375977 526.455017 255.065979 525.755981 261.329956 C 525.083984 267.368958 523.992004 273.318054 523.335022 274.547974 C 522.675049 275.777954 521.765991 281.063965 521.312988 286.292969 C 520.859985 291.522034 519.789001 297.960022 518.937012 300.600037 C 518.082031 303.240051 517.031982 309.179993 516.599976 313.799988 C 516.171021 318.420044 515.088013 324.629944 514.200012 327.600037 C 513.312012 330.570007 512.240967 336.780029 511.824005 341.399963 C 511.404022 346.019958 510.324005 352.22998 509.424011 355.199951 C 508.521027 358.170044 507.44101 364.379944 507.023987 369 C 506.604004 373.619995 505.529999 379.829956 504.636017 382.799988 C 503.742004 385.769958 502.679993 391.80896 502.277985 396.221985 C 501.878998 400.632019 500.832001 406.302063 499.955994 408.82196 C 499.080017 411.338989 498.027008 417.470947 497.619019 422.445007 C 497.207977 427.419067 496.046997 433.832947 495.03598 436.695007 C 494.027985 439.559998 493.199982 444.161987 493.199982 446.924988 C 493.199982 449.687988 492.179993 455.963989 490.935028 460.875 C 489.687012 465.78302 488.358002 473.441956 487.980011 477.893982 C 487.60199 482.346008 486.732025 487.034973 486.045013 488.315979 C 485.358002 489.596985 484.26001 495.846008 483.600006 502.199951 C 482.940002 508.554016 481.859985 514.767029 481.199982 516.002991 C 480.537018 517.238953 479.492981 523.112976 478.878021 529.052979 C 478.263031 534.995972 477.213013 540.882019 476.544037 542.132996 C 475.875 543.380981 474.798035 549.588013 474.150024 555.921021 C 473.502014 562.257019 472.460999 568.421997 471.839996 569.619019 C 471.216034 570.81897 470.322021 576.359985 469.851013 581.93396 C 469.380035 587.505005 468.27301 593.984985 467.390991 596.333984 C 466.509033 598.679993 465.435028 604.607971 465 609.51001 C 464.568024 614.408997 463.490997 620.348999 462.609009 622.710022 C 461.72699 625.067993 460.691986 630.837036 460.311005 635.526001 C 459.927032 640.218018 458.882996 646.15802 457.988983 648.726013 C 457.095032 651.296997 456.027008 657.482971 455.615997 662.468994 C 455.205017 667.457947 454.115997 673.39801 453.195007 675.669006 C 452.271027 677.942993 451.182007 684.011963 450.768005 689.160034 C 450.357025 694.307983 449.439026 699.605957 448.730988 700.932007 C 448.019989 702.257996 446.937012 708.203979 446.322021 714.146973 C 445.707001 720.087036 444.639008 726.003052 443.951996 727.289978 C 443.261993 728.579956 442.185028 737.588989 441.561005 747.314941 C 440.93399 757.041016 439.845032 768.869995 439.140015 773.601013 C 438.261017 779.505005 438.237 784.391968 439.068024 789.200928 C 439.734009 793.050049 440.648987 801.869995 441.10199 808.800049 C 441.552032 815.72998 442.929016 824.573975 444.162018 828.456055 C 445.392029 832.338013 446.400024 836.52301 446.400024 837.761963 C 446.400024 838.997925 447.480011 842.024963 448.800018 844.488037 C 450.119995 846.947998 451.199982 850.148987 451.199982 851.598022 C 451.199982 853.043945 451.983002 855.011963 452.940002 855.968994 C 453.897003 856.926025 455.037018 859.131042 455.475006 860.86499 C 455.910004 862.60199 456.753021 864.323975 457.350006 864.692993 C 457.947021 865.062012 459.257996 867.333008 460.265991 869.739014 C 461.271027 872.14801 462.480011 874.403931 462.951019 874.757996 C 463.421997 875.112061 465.425995 877.829956 467.402985 880.800049 C 472.944 889.118958 484.299011 901.284058 491.886017 907.028931 C 494.190002 908.772034 497.453979 911.472046 499.136993 913.02301 C 500.822998 914.577026 504.296997 917.007019 506.855988 918.422974 C 509.417999 919.842041 512.79303 921.704956 514.356018 922.56604 C 515.921997 923.427002 517.200012 924.582031 517.200012 925.131042 C 517.200012 925.682983 519.117004 926.492981 521.463013 926.93396 C 523.809021 927.371948 526.005005 928.460999 526.347046 929.348999 C 526.685974 930.237061 528.765015 931.302002 530.96405 931.713013 C 533.160034 932.127075 535.562988 933.192017 536.301025 934.083008 C 537.042053 934.971069 539.723999 936.032959 542.268005 936.44104 C 544.809021 936.846069 547.509033 937.926025 548.265015 938.838013 C 549.020996 939.75 552.197998 940.851013 555.320984 941.289001 C 558.44397 941.723999 562.046997 942.869995 563.328003 943.838989 C 564.612 944.807983 567.189026 945.600037 569.058044 945.600037 C 570.929993 945.600037 575.531982 946.679993 579.287964 948 C 583.044006 949.320007 588.059998 950.399963 590.433044 950.399963 C 592.80603 950.399963 598.763977 951.429016 603.675049 952.682983 C 609.671997 954.218994 619.09198 955.214966 632.400024 955.727966 C 643.289978 956.14502 657.276001 957.054016 663.47699 957.743958 C 671.502014 958.640991 678.770996 958.619995 688.677002 957.675049 C 696.335999 956.942993 710.369995 955.863037 719.86499 955.277954 C 739.167053 954.084045 738.572998 954.405029 739.80603 944.538025 C 740.265015 940.854004 741.351013 935.942993 742.218018 933.620972 C 743.085022 931.299072 744.096008 925.317017 744.462036 920.331055 C 744.830994 915.342041 745.955994 909.281982 746.96405 906.867004 C 747.974976 904.452026 748.800049 899.877075 748.800049 896.699951 C 748.800049 893.52301 749.634033 887.969971 750.653992 884.360962 C 751.671021 880.752075 752.96698 873.444031 753.531006 868.121948 C 754.095032 862.796997 755.421021 855.894043 756.47699 852.780029 C 757.536011 849.663025 758.424011 844.299072 758.453979 840.858032 C 758.481018 837.416992 759.312012 832.440063 760.296021 829.800049 C 761.279968 827.160034 762.40802 821.165955 762.801025 816.47998 L 763.518005 807.957031 L 728.52301 807.084045 C 709.275024 806.604004 691.787964 805.703979 689.664001 805.083008 C 687.539978 804.464966 680.76001 803.427002 674.601013 802.776001 C 668.435974 802.128052 662.247009 800.789978 660.833984 799.800049 C 659.421021 798.809937 657.16803 798 655.824036 798 C 646.872009 798 622.817993 777.281982 622.794006 769.547974 C 622.787964 768.366028 621.911987 765.779968 620.843994 763.800049 C 617.89502 758.324951 617.205017 738.782959 619.605042 728.69397 C 620.664001 724.242004 622.080017 716.072998 622.752014 710.537964 C 623.424011 705.005981 624.453003 699.875977 625.041016 699.138 C 625.632019 698.402954 626.505005 693.47998 626.984985 688.199951 C 627.468018 682.919983 628.56897 676.710022 629.435974 674.400024 C 630.302979 672.089966 631.36499 666.191956 631.800049 661.289978 C 632.231995 656.390991 633.312012 650.450989 634.200012 648.089966 C 635.085022 645.731995 636.164978 639.791992 636.599976 634.890015 C 637.031982 629.990967 638.109009 624.050964 638.990967 621.690002 C 639.872986 619.33197 640.90802 613.557007 641.292053 608.862 C 641.673035 604.166992 642.729004 598.496948 643.63501 596.261963 C 644.541016 594.026978 645.609009 588.117004 646.005005 583.130981 C 646.403992 578.142029 647.55603 572.08197 648.564026 569.666992 C 649.575012 567.252014 650.400024 562.677002 650.400024 559.5 C 650.400024 556.322998 651.234009 550.769958 652.254028 547.16095 C 653.270996 543.552002 654.567017 536.244019 655.130981 530.921997 C 655.695007 525.596985 657.020996 518.69397 658.076965 515.580017 C 659.136047 512.463013 660 507.255005 660 504 C 660 500.744995 660.807007 495.707947 661.794006 492.800964 C 662.781006 489.896973 664.09198 482.619019 664.713013 476.630981 C 665.333984 470.643005 666.419983 464.65802 667.130981 463.33197 C 667.83905 462.005981 668.757019 456.707947 669.16803 451.559998 C 669.582031 446.411987 670.63501 440.429993 671.511047 438.267029 C 672.390015 436.101013 673.46698 430.16095 673.90802 425.066956 C 674.348999 419.969971 675.375 414.156006 676.19104 412.146057 C 677.004028 410.135986 678.075012 404.195984 678.567017 398.945984 C 679.059021 393.695984 680.169006 387.509949 681.036011 385.199951 C 681.903015 382.890015 682.965027 376.992004 683.400024 372.089966 C 683.832031 367.190979 684.908997 361.250977 685.791016 358.890015 C 686.673035 356.531982 687.708008 350.762939 688.08905 346.073975 C 688.473022 341.382019 689.517029 335.441956 690.411011 332.874023 C 691.304993 330.30304 692.390991 324.318054 692.820007 319.574951 C 693.252014 314.828979 694.203003 309.429016 694.934998 307.574951 C 695.669983 305.718018 696.729004 299.870972 697.289978 294.578979 C 697.851013 289.287048 699.140991 282.605957 700.154968 279.728943 C 701.169006 276.85199 702 272.204956 702 269.406006 C 702 266.603943 703.101013 260.867981 704.450989 256.656006 C 705.798035 252.444031 706.742981 247.379944 706.551025 245.399963 L 706.200012 241.799988 L 618.927002 241.491028 L 531.656982 241.184937 L 529.320007 245.762939"/>
    </g>
</svg>
