<svg width="367" height="372" xmlns="http://www.w3.org/2000/svg" xmlns:xlink="http://www.w3.org/1999/xlink"><defs><filter x="-2.5%" y="-1.7%" width="105.1%" height="105%" filterUnits="objectBoundingBox" id="prefix__a"><feOffset dy="3" in="SourceAlpha" result="shadowOffsetOuter1"/><feGaussianBlur stdDeviation="2.5" in="shadowOffsetOuter1" result="shadowBlurOuter1"/><feColorMatrix values="0 0 0 0 0 0 0 0 0 0 0 0 0 0 0 0 0 0 0.16 0" in="shadowBlurOuter1"/></filter><path d="M126.35 187.611l4.419.78a64.066 64.066 0 01-1.618 3.918c-3.677 8.133-8.733 14.947-15.422 20.297-8.403 6.719-18.25 10.157-28.948 10.017-7.62-.099-14.926-2.105-21.878-5.792-8.186-4.359-15.04-10.53-20.744-18.323-5.094-6.94-8.877-14.688-11.408-23.163-2.44-8.18-3.588-16.489-3.374-24.901.022-.787.045-1.366.104-2.688.016-.342.026-.576.034-.776.001-.303.01-.6.025-.895l-.272-.691 2.243-12.718.605-.621c.9-3.304 2.127-6.55 3.656-9.804 3.668-7.82 8.64-14.394 15.14-19.574 7.937-6.314 17.175-9.722 27.26-9.946 7.944-.168 15.59 1.729 22.847 5.453 7.425 3.817 13.83 9.183 19.238 15.882 7.107 8.775 11.949 18.877 14.688 30.184l-1.234 6.999c-6.475-5.815-11.59-12.894-15.544-21.161-4.436-9.29-7.021-19.277-7.886-29.912a92.253 92.253 0 01.166-16.802c.268-2.777.477-4.483.837-6.157 1.923-10.502 5.184-19.607 10.195-27.937 4.27-7.113 9.455-13.086 15.756-17.839 7.701-5.824 16.296-9.264 25.667-9.956 9.55-.717 18.68 1.477 27.101 6.327 6.705 3.868 12.415 9.083 17.237 15.495 6.787 9.009 11.276 19.338 13.74 30.929a89.792 89.792 0 011.916 21.11 94.554 94.554 0 01-1.088 11.992c-.826 5.205-2.06 10.187-3.744 14.95a81.782 81.782 0 01-3.724 8.902l-4.74-.836a79.856 79.856 0 01-.066-11.358 84.755 84.755 0 011.622-12.128 93.627 93.627 0 019.753-26.27c5.012-9.087 11.227-16.966 18.752-23.566 6.982-6.122 14.575-10.698 22.938-13.581 6.85-2.366 13.865-3.377 20.978-2.938l.135.009c3.787.269 5.868.64 9.569 1.669l.16.044.157.048c13.696 4.154 23.858 13.301 30.261 26.44 3.843 7.89 5.876 16.428 6.411 25.77.402 7.25-.194 14.53-1.732 21.85-2.714 12.913-7.955 24.793-15.661 35.532-5.593 7.797-12.175 14.372-19.826 19.64-4.063 2.792-8.247 5.09-12.58 6.865l1.353-7.671a86.138 86.138 0 017.85-9.611 74.949 74.949 0 0111.582-10.036c9.1-6.365 18.786-10.402 29.296-11.847 6.767-.915 13.376-.611 19.786 1.043 10.39 2.674 19.048 8.457 25.434 17.058 5.43 7.314 8.492 15.767 9.516 25.19.532 4.89.465 9.76-.222 14.572l-.033.232-.26 1.47-.044.217c-.188.9-.356 1.856-.509 2.891l-.029.197-.27 1.531-.072.32c-2.237 9.997-6.556 19.274-12.8 27.983-4.792 6.659-10.422 12.434-16.872 17.241-8.902 6.646-18.523 11.01-28.985 12.821-7.08 1.227-14.054 1.111-20.882-.486-10.701-2.516-19.637-8.29-26.24-17.042-5.185-6.88-8.266-14.827-9.479-23.627a60.542 60.542 0 01-.576-8.588l5.072.894.032.078c3.378 8.04 6.115 13.946 9.102 19.422a114.398 114.398 0 0011.222 16.859c6.62 8.259 12.075 17.011 16.35 26.37 3.915 8.629 6.594 17.326 7.96 26.23 1.16 7.553 1.327 14.951.422 22.251-1.478 11.996-5.646 22.82-12.662 32.234-6.562 8.812-15.059 15.569-25.253 20.307-7.594 3.528-15.324 5.642-23.265 6.19-2.66.192-5.306.212-7.906.056l-.787.346-14.6-2.574-.261-.272c-4.269-1.076-8.272-2.58-14.128-5.075-3.944-1.688-7.002-3.114-13.668-6.312l-.047-.022c-4.64-2.226-6.69-3.195-9.208-4.334-6.154-2.775-11.703-4.904-17.089-6.504-3.383-1.006-7.117-1.767-11.61-2.4-2.416-.343-5.133-.46-8.963-.42-5.464.066-10.036.396-20.246 1.344l-.147.013-.407.038c-11.896 1.123-17.591 1.505-24.799 1.419-4.723-.068-8.012-.287-11.623-.943l-.084-.009c-.927-.1-1.44-.168-2.277-.337l-.11-.021-.04-.006c-.7-.103-1.076-.164-1.696-.296a18.877 18.877 0 01-1.89-.504 870.608 870.608 0 00-1.379-.337 102.91 102.91 0 01-2.428-.626c-10.242-2.817-19.16-7.998-26.424-15.517-12.084-12.508-18.61-27.735-19.167-45.049-.197-6.38.505-12.752 2.043-19.119 1.685-7.048 4.32-13.816 7.868-20.359 5.268-9.71 12.17-18.395 20.64-26.202 6.021-5.55 12.641-10.458 19.833-14.745 4.862-2.903 9.69-6.397 14.702-10.59 5.115-4.286 9.837-8.734 17.253-16.105zm115.909 195.04l-.01-.003a3.817 3.817 0 00.01.003zm-.706-.132zm-4.601-.823h-.009a11.22 11.22 0 01.009 0zm-137.704-24.31l.028.005-.028-.005zm-69.896-222.61z" id="prefix__b"/></defs><g fill-rule="nonzero" fill="none"><path d="M-22-19h400v400H-22z"/><g transform="translate(-22 -19)"><use fill="#000" filter="url(#prefix__a)" xlink:href="#prefix__b"/><use fill="#FFF" xlink:href="#prefix__b"/></g><path d="M75.532 323.51c-1.376-.343-2.76-.666-4.13-1.038-7.675-2.112-14.381-5.925-19.922-11.659-9.56-9.894-14.703-21.716-15.148-35.53-.16-5.19.438-10.295 1.656-15.337 1.416-5.92 3.628-11.513 6.525-16.854 4.624-8.525 10.64-15.939 17.755-22.496 5.362-4.943 11.205-9.245 17.465-12.978 5.86-3.498 11.331-7.536 16.561-11.91 6.583-5.517 12.717-11.514 18.797-17.568 5.375-5.352 10.684-10.756 16.288-15.859 4.216-3.85 8.591-7.503 13.316-10.713 5.91-4.009 12.209-7.175 19.244-8.708a43.107 43.107 0 0115.925-.493c6.041.922 11.88 2.567 17.479 5.034 8.567 3.784 15.556 9.52 21.115 17.054 3.8 5.174 6.797 10.796 9.48 16.602 2.848 6.156 5.349 12.457 7.973 18.713 2.96 7.044 6.067 14.012 9.73 20.728a128.727 128.727 0 0012.624 18.965c5.766 7.195 10.646 14.93 14.482 23.328 3.265 7.198 5.645 14.66 6.845 22.482.936 6.092 1.123 12.188.363 18.318-1.148 9.312-4.292 17.856-9.93 25.42-5.22 7.01-11.904 12.2-19.795 15.867-5.8 2.695-11.856 4.452-18.26 4.894a45.403 45.403 0 01-6.811-.01c-.316-.025-.626-.02-.933-.026-.321.114-.622-.066-.936-.082-.259-.01-.507-.173-.777-.054l-5.718-1.008c-.197-.205-.474-.135-.71-.208l-1.206-.213c-4.849-1.018-9.404-2.872-13.93-4.801-7.668-3.28-15.073-7.121-22.67-10.556-6.153-2.775-12.415-5.252-18.893-7.176-4.488-1.335-9.071-2.202-13.68-2.852-3.687-.523-7.424-.6-11.146-.561-7.351.088-14.662.78-21.974 1.458-7.738.73-15.473 1.45-23.247 1.356-3.16-.045-6.314-.16-9.432-.742-.639-.121-1.293-.137-1.939-.267-.817-.192-1.656-.189-2.436-.52zM265.44 37.004c10.065 3.052 16.996 9.678 21.54 19.002 3.114 6.393 4.58 13.206 4.985 20.285.338 6.094-.192 12.127-1.447 18.103-2.308 10.98-6.744 21.013-13.28 30.12-4.527 6.313-9.898 11.777-16.293 16.18-5.695 3.912-11.857 6.753-18.684 7.998-4.795.872-9.568.88-14.314-.25-8.22-1.946-14.684-6.498-19.59-13.322-4.18-5.824-6.57-12.395-7.789-19.418-.85-4.912-1.051-9.855-.734-14.818a70.487 70.487 0 011.348-10.09 79.3 79.3 0 018.271-22.272c4.112-7.456 9.247-14.093 15.65-19.709 5.386-4.724 11.368-8.466 18.167-10.81 4.996-1.726 10.131-2.507 15.423-2.18 2.902.206 4.047.43 6.747 1.181zM21.556 118.343c.717-3.119 1.826-6.11 3.187-9.004 2.637-5.625 6.2-10.547 11.084-14.44 5.458-4.342 11.67-6.678 18.645-6.833 5.663-.12 10.98 1.297 15.998 3.872 5.768 2.965 10.596 7.13 14.655 12.158 6.31 7.79 10.246 16.701 12.337 26.473a64.762 64.762 0 011.401 15.526c-.075 2.538-.342 5.058-.733 7.568-.749 4.764-2.048 9.352-4.033 13.74-2.646 5.853-6.266 10.968-11.31 15.002-5.79 4.63-12.403 6.978-19.817 6.881-5.44-.07-10.536-1.568-15.334-4.112-6.449-3.434-11.638-8.293-15.93-14.156-4.188-5.706-7.204-12.007-9.226-18.78-1.982-6.641-2.958-13.447-2.782-20.395.035-1.228.1-2.45.15-3.672-.031-.568.117-1.118.082-1.683-.02-.238.052-.447.082-.684.008-.296.193-.581.067-.9l.774-4.387c.343-.353.287-.823.393-1.244.08-.316.059-.668.31-.93zm79.776-57.299c1.57-8.701 4.19-16.337 8.428-23.382 3.198-5.328 7.128-10.023 12.112-13.783 5.368-4.06 11.343-6.597 18.098-7.097 6.756-.506 13.027 1.083 18.875 4.451 5.15 2.972 9.393 6.973 12.954 11.708 5.688 7.55 9.21 16.074 11.167 25.278a75.445 75.445 0 011.607 17.745 80.034 80.034 0 01-.916 10.13c-.67 4.23-1.676 8.386-3.105 12.427-2.977 8.446-7.349 16.03-13.861 22.27-4.05 3.869-8.661 6.845-13.994 8.634-5.958 1.997-11.997 2.205-18.071.642-5.493-1.408-10.305-4.138-14.592-7.83-5.593-4.81-9.768-10.705-12.94-17.334-3.759-7.872-5.826-16.208-6.533-24.898a78.115 78.115 0 01.148-14.258c.172-1.783.365-3.574.623-4.703zm244.715 119.75l-.179 1.012c-1.864 8.328-5.498 15.837-10.446 22.737-3.889 5.405-8.472 10.147-13.81 14.126-6.853 5.116-14.392 8.718-22.86 10.185-5.074.879-10.134.86-15.162-.317-7.419-1.745-13.481-5.622-18.08-11.718-3.796-5.038-5.874-10.776-6.728-16.974-.773-5.556-.505-11.095.641-16.582 2.512-12.067 8.282-22.421 16.688-31.346a60.546 60.546 0 019.35-8.103c6.964-4.87 14.535-8.226 23.005-9.39 4.815-.651 9.591-.495 14.299.72 7.19 1.85 13.06 5.739 17.505 11.724 4.01 5.4 6.053 11.557 6.775 18.192.398 3.664.36 7.336-.162 10.993l-.18 1.02a64.294 64.294 0 00-.656 3.72z" fill="#000"/></g></svg>