<svg xmlns="http://www.w3.org/2000/svg" viewBox="0 0 254.57 40.22"><defs><style>.cls-1{fill:#767998}.cls-2{fill:#d73f72}</style></defs><path class="cls-1" d="M80.47 20.29a5 5 0 0 0-4.11-1.93c-2.43 0-3.59 1-3.59 2.3 0 1.51 1.78 1.93 3.86 2.18 3.61.45 7 1.39 7 5.52 0 3.86-3.42 5.52-7.28 5.52-3.54 0-6.26-1.09-7.55-4.26l2.72-1.41c.77 1.91 2.77 2.75 4.88 2.75s4-.72 4-2.6c0-1.63-1.71-2.3-4-2.55-3.54-.42-6.81-1.36-6.81-5.25 0-3.56 3.51-5 6.71-5 2.7 0 5.49.77 6.81 3.44zm21.91.59l-5.64 7.52h-.64l-5.52-7.55v12.6h-3.27V16.13h3.76l5.42 7.45 5.42-7.45h3.74v17.32h-3.27zm19.91 9.28h-9.06l-1.49 3.27h-3.54L116 16.1h3.56l7.77 17.33h-3.56zm-4.53-10.42l-3.22 7.38H121zm27.41 13.69h-3.89l-5-5.79h-3.18v5.79h-3.27V16.08h8.24c4.08 0 6.24 2.75 6.24 5.74a5.14 5.14 0 0 1-4.38 5.45l5.25 5.92zM133.1 19.15v5.54h5a2.78 2.78 0 1 0 0-5.54zm18.9-.08h-5.49v-3h14.26v3h-5.49v14.36H152zm19.45 4.19l4.6-7.15H180v.15l-6.91 10v7.15h-3.27v-7.13l-6.66-10v-.18H167zM184 31.87a1.78 1.78 0 0 1-3.56 0 1.78 1.78 0 0 1 3.56 0z"/><path class="cls-2" d="M200.2 20.29a5 5 0 0 0-4.11-1.93c-2.43 0-3.59 1-3.59 2.3 0 1.51 1.78 1.93 3.86 2.18 3.61.45 7 1.39 7 5.52 0 3.86-3.42 5.52-7.28 5.52-3.54 0-6.26-1.09-7.55-4.26l2.72-1.41C192 30.11 194 31 196.12 31s4-.72 4-2.6c0-1.63-1.71-2.3-4-2.55-3.54-.42-6.81-1.36-6.81-5.25 0-3.56 3.51-5 6.71-5 2.7 0 5.49.77 6.81 3.44zm18.71 9.87h-9.06l-1.49 3.27h-3.54l7.78-17.33h3.56l7.77 17.33h-3.56zm-4.53-10.42l-3.22 7.38h6.44zm15.33-3.64v14.31h8.91v3h-12.18V16.1zm24.86 17.33h-13V16.1h13v3.17h-9.73v4h9.38v3h-9.38v3.91h9.73zM10 14.34a2 2 0 0 0-2-2H1.57a1.49 1.49 0 0 0-1.51 1.94l.78 3.08a2.71 2.71 0 0 0 2.48 1.94H8a2 2 0 0 0 2-2zm3.88 8.5a2 2 0 0 0-2-2h-4.3a1.49 1.49 0 0 0-1.51 1.94l.78 3.08a2.71 2.71 0 0 0 2.48 1.94h2.55a2 2 0 0 0 2-2z"/><rect class="cls-2" x="16.97" y="20.84" width="6.96" height="6.96" rx="2" ry="2"/><rect class="cls-2" x="14.65" y="12.34" width="6.96" height="6.96" rx="2" ry="2"/><path class="cls-2" d="M11.27 29.35a1.49 1.49 0 0 0-1.51 1.94l.78 3.08A2.71 2.71 0 0 0 13 36.31h.41a2 2 0 0 0 2-2v-3a2 2 0 0 0-2-2z"/><path class="cls-1" d="M46.36 37.9s-.75 2.32-1.66 2.32H13.22c-.91 0-1.66-2.32-1.66-2.32zM25.65 0v9.24a1.46 1.46 0 0 0 1.4 1.59h3.87a1.71 1.71 0 0 0 1.69-1.59V0"/><path class="cls-1" d="M34.05 1.55L25.54 0h6.96l6.96 1.55h-5.41z"/><path class="cls-1" d="M34.16 1.55v7.7a1.46 1.46 0 0 0 1.4 1.59h2.32a1.71 1.71 0 0 0 1.69-1.59v-7.7"/><rect class="cls-1" x="33.99" y="12.34" width="6.96" height="6.96" rx="2" ry="2"/><path class="cls-1" d="M49.18 19.3a2.71 2.71 0 0 0 2.49-1.94l.78-3.08a1.49 1.49 0 0 0-1.51-1.94h-6.45a2 2 0 0 0-2 2v3a2 2 0 0 0 2 2z"/><rect class="cls-1" x="33.99" y="20.84" width="6.96" height="6.96" rx="2" ry="2"/><rect class="cls-1" x="25.48" y="12.34" width="6.96" height="6.96" rx="2" ry="2"/><rect class="cls-1" x="25.48" y="29.35" width="6.96" height="6.96" rx="2" ry="2"/><path class="cls-1" d="M44.49 20.84a2 2 0 0 0-2 2v3a2 2 0 0 0 2 2H47a2.71 2.71 0 0 0 2.49-1.94l.78-3.08a1.49 1.49 0 0 0-1.51-1.94z"/><rect class="cls-1" x="33.99" y="29.35" width="6.96" height="6.96" rx="2" ry="2"/><rect class="cls-1" x="16.97" y="29.35" width="6.96" height="6.96" rx="2" ry="2"/><path class="cls-1" d="M42.49 34.31a2 2 0 0 0 2 2h.41a2.71 2.71 0 0 0 2.49-1.94l.78-3.08a1.49 1.49 0 0 0-1.51-1.94h-2.17a2 2 0 0 0-2 2z"/><rect class="cls-1" x="25.48" y="20.84" width="6.96" height="6.96" rx="2" ry="2"/></svg>