<svg width="226" height="226" fill="none" xmlns="http://www.w3.org/2000/svg"><path d="M201.333 78.726c-22.157-25.514-58.825-29.18-81.901-8.188l-51.7 47.031c-23.076 20.992-23.822 58.692-1.665 84.206 22.157 25.514 58.826 29.179 81.902 8.188l51.7-47.031c23.076-20.992 23.821-58.692 1.664-84.206z" fill="#FF001D"/><path d="M65.787 179.457c33.245 0 62.047-26.898 62.047-61.221 0-34.323-26.024-62.148-59.268-62.148-33.245 0-60.195 27.825-60.195 62.148 0 34.323 24.172 61.221 57.416 61.221z" fill="#6DDCE5"/><path fill-rule="evenodd" clip-rule="evenodd" d="M127.834 118.236c0 34.323-28.802 61.22-62.047 61.22-4.508 0-8.85-.494-12.986-1.435-6.709-21.628-1.661-45.358 14.93-60.451l45.025-40.958c9.416 11.018 15.078 25.614 15.078 41.624z" fill="#6B289B"/><path fill-rule="evenodd" clip-rule="evenodd" d="M114.573 52.305S60.531 58 61.478 1.06l53.095 51.245zm0 0S117.417.111 61.478 1.06l53.095 51.245z" fill="#7FD44A"/></svg>