<svg width="1460" height="530" viewBox="0 0 1460 530" xmlns="http://www.w3.org/2000/svg" xmlns:xlink="http://www.w3.org/1999/xlink">
    <path id="Path" fill="#458500" fill-rule="evenodd" stroke="none" d="M 1298.753906 494.580078 C 1273.540039 494.488678 1248.178955 487.150757 1226.199219 472.300781 C 1216.599243 465.800781 1210.800415 458.599182 1201.900391 475.199219 C 1192.400391 492.89917 1172.800049 496.799988 1153.5 493 C 1135.599976 489.5 1123.500366 477.899994 1119.400391 460 C 1117.000366 449.299988 1116.300781 437.900391 1116.300781 426.900391 C 1116.100708 322.300476 1116.099243 217.699554 1116.199219 113.099609 C 1116.199219 104.299622 1116.200684 95.500793 1117.300781 86.800781 C 1121.000732 58.300812 1139.5 42.599609 1167.5 43.599609 C 1193.300049 44.499634 1211.400391 61.900848 1212.400391 89.800781 C 1213.700317 120.700775 1212.800781 151.700409 1212.800781 187.400391 C 1250.900757 158.200409 1289.599243 152.499207 1330.199219 160.699219 C 1388.599243 172.499207 1426.099243 214.899719 1435.699219 284.599609 C 1444.199219 346.299561 1438.199951 406.500854 1392.5 454.800781 C 1367.582886 481.221069 1333.306274 494.705353 1298.753906 494.580078 Z M 1277.246094 408.517578 C 1303.327637 408.625702 1323.035645 393.549194 1331.599609 365.199219 C 1341.199585 333.699249 1340.399292 301.900787 1326.699219 271.800781 C 1309.199219 233.300812 1263.900757 227.999664 1236.800781 260.599609 C 1220.600708 280.099609 1217.100708 303.500397 1216.800781 333.900391 C 1217.800781 339.800354 1218.600708 351.899231 1221.800781 363.199219 C 1229.800781 392.099152 1249.400024 407.900024 1276 408.5 C 1276.417236 408.509369 1276.832153 408.515869 1277.246094 408.517578 Z"/>
    <path id="path1" fill="#458500" fill-rule="evenodd" stroke="none" d="M 689.238281 494.677734 C 657.967712 494.631256 627.446045 488.065247 599.199219 470.599609 C 541.499268 434.999664 516.000793 363.699951 531.800781 283 C 543.300781 224.100037 575.600403 181.199188 633.900391 165.199219 C 696.000305 147.999237 756.099243 153.200439 804.199219 203.400391 C 830.899231 231.200348 842.799988 265.299652 841.5 303.599609 C 840.5 334.599579 826.499146 349.999634 795.699219 355.099609 C 767.999207 359.699646 740.000366 356.700012 715.900391 357.5 C 690.600342 357.5 669 358.000793 647.5 357.300781 C 634 356.900818 630.799988 361.099182 635 374.199219 C 647.200012 411.8992 686.900452 429.099609 723.900391 411.599609 C 740.800354 403.599609 753.400024 390.100342 767 377.900391 C 784.900024 361.900391 807.700012 359.400391 823.5 371.400391 C 838.5 382.800354 842.100342 404.09964 830.900391 425.599609 C 809.000366 467.699615 770.39917 485.900024 726.199219 492 C 713.824219 493.715637 701.474609 494.695923 689.238281 494.677734 Z M 643.294922 289.644531 C 647.829834 289.636169 653.268372 288.374634 657.599609 288.599609 C 666.299622 289.099609 675.100769 288.699219 683.800781 288.699219 C 698.100769 288.699219 712.399231 288.100342 726.699219 288.900391 C 739.499207 289.700378 741.999634 284.799194 738.099609 273.699219 C 730.999634 253.399261 717.799622 239.499634 696.099609 236.099609 C 673.499634 232.499634 655.299194 240.59964 643.199219 260.099609 C 638.299194 267.999634 630.700806 277.599609 635.300781 286.099609 C 636.788269 288.899597 639.767761 289.651001 643.294922 289.644531 Z"/>
    <path id="path2" fill="#458500" stroke="none" d="M 956.5 182.200012 C 991.099976 145.400024 1041.599976 155.299988 1070.900024 172.700012 C 1094.099976 186.5 1102.400024 209.299988 1093.199951 231.700012 C 1083.900024 254.200012 1062.5 262.799988 1035.699951 254.900024 C 989.900024 241.299988 975.599976 250.799988 967.799988 298.599976 C 961.299988 339.099976 964.599976 379.700012 963.700012 420.299988 C 963.5 429.900024 964.099976 439.599976 962.700012 448.900024 C 958.200012 478 938.299988 494.700012 910.299988 493.799988 C 884.099976 493 865.599976 475.299988 863.400024 446.099976 C 861.700012 423.900024 862.299988 401.5 862.299988 379.200012 C 862.299988 325 862.200012 270.799988 862.799988 216.5 C 863 192.299988 868.5 170 894.200012 160 C 916.200012 151.700012 935.900024 159.099976 956.5 182.200012 Z"/>
    <path id="path3" fill="#458500" stroke="none" d="M 506.200012 267.700012 C 506.200012 321.200012 506.200012 374.700012 506.200012 428.099976 C 506.200012 444.200012 504.799988 460 494.600006 473.5 C 480.399994 492.299988 461 497.100006 439.200012 492.700012 C 416.700012 488.200012 400.899994 469.299988 399.399994 442 C 397.600006 409.400024 398.5 376.599976 398.399994 343.900024 C 398.299988 304.700012 398.399994 304.700012 360.200012 304.700012 C 327.5 304.700012 294.700012 305.299988 262 304.400024 C 248.199997 304 244.399994 308.400024 244.699997 321.900024 C 245.5 359.400024 245.100006 396.900024 244.899994 434.400024 C 244.800003 457.5 236.899994 476.900024 215.699997 488.200012 C 185 504.5 148.300003 488.200012 140.199997 454.5 C 137.600006 443.799988 137.199997 432.400024 137.199997 421.299988 C 137 319.099976 137.100006 217 137.100006 114.799988 C 137.100006 107.599976 137.300003 100.400024 138.300003 93.299988 C 142.600006 59.299988 161.399994 42.5 193.5 43.400024 C 223.600006 44.299988 243.600006 65 244.899994 98 C 245.800003 122.700012 245.100006 147.5 245.100006 172.200012 C 245.100006 211.099976 245.100006 211.099976 283.200012 211.099976 C 315.899994 211.099976 348.700012 210.5 381.399994 211.400024 C 394.799988 211.799988 399.200012 208 398.799988 194.299988 C 397.799988 163.200012 397.700012 132 398.799988 100.900024 C 400 65.200012 419.399994 44.299988 449.799988 43.400024 C 484.799988 42.400024 505.399994 63.200012 506.299988 102.400024 C 507.100006 140.700012 506.5 179 506.5 217.299988 C 506.200012 234.200012 506.200012 250.900024 506.200012 267.700012 Z"/>
    <path id="path4" fill="#458500" stroke="none" d="M 10.100006 325.599976 C 10.100006 288.099976 9.899994 250.599976 10.200012 213.099976 C 10.5 178.5 28.799988 158.099976 59.100006 157.700012 C 90.300003 157.299988 110.399994 178.400024 110.600006 213.599976 C 111 287.799988 111.100006 361.900024 110.600006 436.099976 C 110.399994 473.400024 90.800003 494.299988 58.5 493.899994 C 27.799988 493.5 10.299988 472.5 10.100006 435.599976 C 10 399 10.100006 362.299988 10.100006 325.599976 Z"/>
    <path id="path5" fill="#458501" stroke="none" d="M 59.699997 47.5 C 89.300003 47.099976 110 66.5 110.699997 95.099976 C 111.399994 125.299988 90.899994 146.400024 60.800003 146.599976 C 30.700012 146.900024 10.600006 128 10.100006 99 C 9.5 68.400024 29.399994 47.900024 59.699997 47.5 Z"/>
</svg>
