<svg width="98" height="27" xmlns="http://www.w3.org/2000/svg"><g fill="#78BD17" fill-rule="evenodd"><path d="M26.301 7.82a.815.815 0 00-.572-.237h-3.03a.81.81 0 00-.809.808V25.2a.811.811 0 00.809.808h3.03a.804.804 0 00.809-.808V8.391a.821.821 0 00-.237-.571M14.334 26.009a.812.812 0 01-.808-.808v-9.749c.006-1.632-.508-2.477-.964-3.063-.444-.576-1.53-1.146-2.922-1.16h-.25c-2.69 0-4.461 2.098-4.497 5.442v8.53a.806.806 0 01-.808.808H1.054a.812.812 0 01-.808-.808V8.391a.812.812 0 01.808-.808h3.031c.212 0 .42.086.572.237.15.15.236.358.236.57v.87C6.487 7.897 8.06 7.046 10.49 7.051h.196c2.683-.013 4.575.914 5.707 2.45 1.125 1.526 1.774 3.429 1.78 5.7v10a.805.805 0 01-.808.808h-3.031M43.482 20.343c-.8.942-2.194 1.353-3.961 1.356-1.768-.002-3.082-.515-3.97-1.384-.885-.873-.867-2.154-.871-3.9.004-1.747-.014-3.028.871-3.9.888-.87 2.202-1.383 3.97-1.386 1.767.003 3.072.513 3.95 1.383.285.282.679.447 1.143.173.893-.53 2.313-1.423 2.598-1.6a.806.806 0 00.229-1.15 6.111 6.111 0 00-.505-.55C45.143 7.65 42.573 6.698 39.521 6.7c-3.053-.003-5.63.948-7.43 2.683-1.805 1.73-2.25 4.212-2.246 7.093-.004 2.88.443 5.337 2.25 7.036 1.806 1.703 4.378 2.615 7.426 2.614h.005c3.044 0 5.607-.914 7.405-2.616.183-.172.351-.353.507-.543.209-.202.394-.875-.182-1.204-.715-.407-1.955-1.217-2.579-1.58-.44-.256-.867-.228-1.195.16"/><path d="M75.447 7.206h-3.319v9.375c0 4.106-2.908 6.74-6.809 6.74-3.318 0-4.414-1.676-4.414-5.405V7.206h-3.32v11.668c0 5.166 2.533 7.253 6.98 7.253 3.115 0 5.544-1.163 7.563-3.627v3.114h3.32V7.206M84.725 23.321c-2.6 0-4.072-1.163-4.072-2.907 0-2.259 1.986-2.567 5.578-2.977 2.771-.309 4.619-.685 5.577-1.266v2.737c0 2.326-2.84 4.413-7.083 4.413M86.71 6.625c-5.646 0-8.623 2.155-8.862 6.5h3.455c.172-2.635 1.917-3.695 5.646-3.695 3.32 0 4.859.856 4.859 2.84 0 2.224-2.121 2.121-6.193 2.566-5.235.582-8.486 1.471-8.486 5.748 0 3.422 2.43 5.543 7.05 5.543 3.386 0 6.055-1.231 7.731-3.352.343 1.984 1.3 3.044 3.217 3.044.616 0 1.574-.068 2.635-.24v-2.667a6.08 6.08 0 01-.993.101c-1.3 0-1.642-.923-1.642-2.838v-7.46c0-4.483-2.292-6.09-8.417-6.09M52.674 20.743a2.692 2.692 0 100 5.385 2.692 2.692 0 000-5.385" fill-opacity=".75"/><path d="M26.906 3.01a2.692 2.692 0 11-5.384 0 2.692 2.692 0 015.384 0"/></g></svg>