<svg width="54" height="41" xmlns="http://www.w3.org/2000/svg"><path d="M200.2 20.29a5 5 0 00-4.11-1.93c-2.43 0-3.59 1-3.59 2.3 0 1.51 1.78 1.93 3.86 2.18 3.61.45 7 1.39 7 5.52 0 3.86-3.42 5.52-7.28 5.52-3.54 0-6.26-1.09-7.55-4.26l2.72-1.41C192 30.11 194 31 196.12 31s4-.72 4-2.6c0-1.63-1.71-2.3-4-2.55-3.54-.42-6.81-1.36-6.81-5.25 0-3.56 3.51-5 6.71-5 2.7 0 5.49.77 6.81 3.44zm18.71 9.87h-9.06l-1.49 3.27h-3.54l7.78-17.33h3.56l7.77 17.33h-3.56zm-4.53-10.42l-3.22 7.38h6.44zm15.33-3.64v14.31h8.91v3h-12.18V16.1zm24.86 17.33h-13V16.1h13v3.17h-9.73v4h9.38v3h-9.38v3.91h9.73zM10 14.34a2 2 0 00-2-2H1.57a1.488 1.488 0 00-1.51 1.94l.78 3.08a2.71 2.71 0 002.48 1.94H8a2 2 0 002-2zm3.88 8.5a2 2 0 00-2-2h-4.3a1.488 1.488 0 00-1.51 1.94l.78 3.08a2.71 2.71 0 002.48 1.94h2.55a2 2 0 002-2zM23.93 24.32v1.48a2 2 0 01-2 2h-2.96a2 2 0 01-2-2v-2.96a2 2 0 012-2h2.96a2 2 0 012 2zM21.61 15.82v1.48a2 2 0 01-2 2h-2.96a2 2 0 01-2-2v-2.96a2 2 0 012-2h2.96a2 2 0 012 2zM11.27 29.35a1.488 1.488 0 00-1.51 1.94l.78 3.08A2.71 2.71 0 0013 36.31h.41a2 2 0 002-2v-3a2 2 0 00-2-2z" fill="#d73f72"/><path d="M46.36 37.9s-.75 2.32-1.66 2.32H13.22c-.91 0-1.66-2.32-1.66-2.32zM25.65 0v9.24c-.036.399.094.795.358 1.096.265.3.642.479 1.042.494h3.87a1.71 1.71 0 001.69-1.59V0" fill="#767998"/><path d="M34.05 1.55L25.54 0h6.96l6.96 1.55z" fill="#767998"/><path d="M34.16 1.55v7.7c-.036.399.094.795.358 1.096.265.3.642.479 1.042.494h2.32a1.71 1.71 0 001.69-1.59v-7.7M40.95 15.82v1.48a2 2 0 01-2 2h-2.96a2 2 0 01-2-2v-2.96a2 2 0 012-2h2.96a2 2 0 012 2zM49.18 19.3a2.71 2.71 0 002.49-1.94l.78-3.08a1.491 1.491 0 00-1.51-1.94h-6.45a2 2 0 00-2 2v3a2 2 0 002 2zM40.95 24.32v1.48a2 2 0 01-2 2h-2.96a2 2 0 01-2-2v-2.96a2 2 0 012-2h2.96a2 2 0 012 2zM32.44 15.82v1.48a2 2 0 01-2 2h-2.96a2 2 0 01-2-2v-2.96a2 2 0 012-2h2.96a2 2 0 012 2zM32.44 32.83v1.48a2 2 0 01-2 2h-2.96a2 2 0 01-2-2v-2.96a2 2 0 012-2h2.96a2 2 0 012 2zM44.49 20.84a2 2 0 00-2 2v3a2 2 0 002 2H47a2.71 2.71 0 002.49-1.94l.78-3.08a1.491 1.491 0 00-1.51-1.94zM40.95 32.83v1.48a2 2 0 01-2 2h-2.96a2 2 0 01-2-2v-2.96a2 2 0 012-2h2.96a2 2 0 012 2zM23.93 32.83v1.48a2 2 0 01-2 2h-2.96a2 2 0 01-2-2v-2.96a2 2 0 012-2h2.96a2 2 0 012 2zM42.49 34.31a2 2 0 002 2h.41a2.71 2.71 0 002.49-1.94l.78-3.08a1.491 1.491 0 00-1.51-1.94h-2.17a2 2 0 00-2 2zM32.44 24.32v1.48a2 2 0 01-2 2h-2.96a2 2 0 01-2-2v-2.96a2 2 0 012-2h2.96a2 2 0 012 2z" fill="#767998"/></svg>